<svg id="Full_Logo" data-name="Full Logo" xmlns="http://www.w3.org/2000/svg" viewBox="0 0 1770 400"><defs><style>.cls-1{fill:#fff;}.cls-2{fill:#c0d0f0;}.cls-3{fill:#ff98a0;}.cls-4{fill:#ffe8c0;}.cls-5{fill:#d8f0c0;}.cls-6{fill:#b8e8d8;}.cls-7{fill:#ffc0b0;}</style></defs><g id="_ffffffff" data-name="#ffffffff"><path class="cls-1" d="M238.89,148.91c12.28-13,30.53-19.59,48.22-19.33,15.94-.18,30.87,8.61,41,20.41,12.38,15,14.51,36.13,10,54.54-2.6,8.69-9.92,16.21-8.71,25.8,3.52,3.91,8.31,6.45,11.61,10.6,2.45,5.13,2.05,11.26.49,16.61-5.25,2.38-12,3.35-16.87-.32-4.11-2.16-7.81-6.87-12.94-5.59-9,2.58-17.29,7.71-26.78,8.57-13.31,1.61-28.81-.12-38-11-15.5-15-20.69-37.2-21.21-58C225,176.08,230,161,238.89,148.91m43.05,5.49c-8.55,1.9-18,4.75-23.06,12.48-10.25,13.39-9.89,31.94-4.58,47.26,2.82,7.54,6.45,15.59,13.54,20,8.15,4.77,19.21,1.52,24.66-5.89-1.16-8-7.39-14.77-6.17-23.22,0-5.29,4.54-10.9,10.23-9.46,4,2,6.93,5.61,10.62,8.14,10-3.51,10.2-15.69,9.42-24.49-.49-9.67-7.58-17.19-14.89-22.72C296.1,152.12,288.45,153.44,281.94,154.4Z"/><path class="cls-1" d="M773.34,135.75c18.59-1,37.64-1.26,55.91,2.46,4,6.71.36,16.35-6.93,18.92-15.17,4.42-31.71-2.21-46.58,3.54-8.69,6.11-6.81,18.81-5.22,27.89,8.93.68,18.23-1.92,26.9,1.22,7.67,2.11,6.87,14.17.44,17.23-7.91,2.79-16.65,2-24.44,5.11-5.23,3.75-4.73,11.18-5.43,16.91-.46,6.47.84,16,8.82,17,15.1.12,30.16-3.37,45.29-1.62,4.23.2,7.67,4.42,6.57,8.63-.72,4.49-.76,11.26-6.29,12.52-13.16,2.67-26.74,2-40.1,1.77-10.62-.83-22.54.08-31.39-6.94-6.47-5.75-8.2-15-8.2-23.24.08-22.84,1.06-45.77-1.28-68.53-.44-8-2.2-17.8,4.25-24.07C753.29,138.05,763.61,136.13,773.34,135.75Z"/><path class="cls-1" d="M1491.22,154.8c-2.66-7.55-.76-18,7.85-20.59,13.81,8.81,17,27.16,30.19,36.68a12.11,12.11,0,0,0,14.34-1.24c9.58-8.08,15.71-19.16,22-29.79,2.88-6.15,12.66-7.68,16.51-1.67,5.42,8.6,4.5,20.56-.95,29-7.19,10.62-17.42,18.56-26.48,27.45a12.3,12.3,0,0,0-4.08,8.4c-1.55,16,3.1,32,.7,47.9-1,9.35-13.46,13.78-20.68,8.51-2.88-2.64-2.28-6.87-2.62-10.36-.1-15.66-1-31.41-4.37-46.74-1.88-8.21-8.31-14-13.78-20C1502.28,174.24,1495.09,165.3,1491.22,154.8Z"/><path class="cls-1" d="M999.66,144.78c14.26-7.07,30.61-8.19,46.27-8.09,8.5.48,19.39,2.36,22.74,11.46,4.33,12.86,3.75,28.19-4.09,39.61-2.48,3.81-5.38,7.35-7.47,11.38,6.15,12.54,18.43,21.78,21.18,36.08,3,8.22-5.59,18.17-14.07,16-12.44-9.42-19.51-23.78-28-36.42-7.11-2.79-15.41-1-22.9-.26-2,13.58,1.72,28.28-4.77,41-2.82,7-16.88,7.79-17.4-1-4.47-30.25-5-60.92-4.71-91.45-.68-8.6,6.13-14.89,13.24-18.3m20.83,15.09c-4,.9-9.33,2.87-9.59,7.69a91.78,91.78,0,0,0,.34,18.6c.38,4.6,6.33,6.87,10.18,5,9.15-3.1,18.4-8.51,23-17.37,1.62-4,2.77-10.67-2.12-12.9A41.11,41.11,0,0,0,1020.49,159.87Z"/><path class="cls-1" d="M1233.79,143.6c28.67-7.13,58.48-3.42,87.68-5.15,7.73-.1,16.87-1.78,23.32,3.63,3.6,6.83.06,16.49-7.07,19.51-8.6,4.09-18.27,1.79-27.37,2.77-4.48,2.6-5.61,8.15-5.91,12.9-1.3,25.62,3.51,51.61-2.22,76.93-1.26,8.82-13,7.26-19.09,5.11-3.12-5.53-3.38-12-3.42-18.23,0-22.5,1.76-45,.68-67.52-.48-4.5-1.47-11.54-7.28-11.6-13.12-1.16-26.26.73-39.36.47C1223.2,163,1224.5,144.5,1233.79,143.6Z"/><path class="cls-1" d="M467.88,144.46c4.6-5.33,14.74-5.08,18.28,1.47,5.37,9.51,5.47,20.91,7.62,31.39,2,9,1.22,18.39,3.24,27.39l4.43-.8c4.15-5.25,6.25-12.1,11.56-16.41,9.69-7.9,25-.84,29.08,10,3.57,5.65,4.69,15.44,12.4,16.62.66-.58,2-1.76,2.61-2.36,3.16-8.67,2.58-18.23,5.23-27,3.12-10.53,5.58-21.45,10.85-31.15,4.31-10.48,22.62-5.55,21.82,5.59-1,18.73-5.87,37-9.18,55.4-2.06,10.71-5.85,22-15,28.68-6.87,6.36-18.43,7.58-25.78,1.39-7.09-5.47-9.78-14.33-14.52-21.54-1.27-2.34-4.93-3.79-7-1.56-8.69,7.91-8,23.56-20,28.37-8.21,1.82-18.59,1.6-24.58-5.13-3.74-6.69-4.2-14.59-5.61-22a366,366,0,0,1-5.8-49.61C467.17,163.7,463.45,153.46,467.88,144.46Z"/></g><g id="_000000ff" data-name="#000000ff"><path d="M728.47,7.13c1.74-8,14.66-9.8,18.27-2.59,2,11.72-1,23.58-1.74,35.28-1.19,9.74-1.65,21.5-10.68,27.57-13.18,8.38-29.17,6.09-43.89,5.41-12.7,1.54-25.28-.74-37.9-1.62-15.95,1.26-32,1.9-48,.1-12.52-2-25,2.28-37.52-.2-11.62-2.35-24.76,1.78-35.27-4.93-8.34-8.58-8-21.62-8.06-32.8.33-8.09-1.92-17,2.59-24.3,5.65-3.87,15.78-2.56,17.09,5.15,1.24,11.42-.46,23.1,2.36,34.38,17.31,3.44,35.2,3.8,52.8,2.26,14,.62,28,2.83,41.93.7,14.64-2.42,29.27,1,43.95.6,12-.62,24,.75,35.92-.2C726.39,38,725.42,21.91,728.47,7.13Z"/><path d="M979.55,3.06c3.66-1.54,8-3.35,11.86-1.32,5.35,2,7.19,8.39,7.47,13.56.3,16.25-1.42,32.8-6.85,48.18-3.81,10.48-15.57,15.15-26,15.45-25.32-.62-50.68-1.7-76-.58-8.34.28-16.55-1.36-24.84-1.9-11.68-.84-23.36.16-35-.06-13.16-.16-26.82,1.14-39.42-3.55-8.25-2.86-13-11.3-14.48-19.47-1.83-10.56-.81-21.32-.91-32C775.56,15.9,774.8,10,777.87,5c6.55-5,16.5-1.36,18.57,6.49,2.36,12.89-3.79,26.27.52,39,1.52,4.57,7.27,4.17,11.12,4.91,25.28,1.78,50.72-1,75.94,2.08,10,1.55,20-1.52,30-.72,17.25,2,34.68,1.36,52,1,5.61.53,9.37-4.7,10.17-9.69C977.93,33.21,975.4,17.7,979.55,3.06Z"/><path d="M27.3,7.81C29.7,1.1,38.83,1.36,43.74,5.08a18.08,18.08,0,0,1,2.37,10.14c-.38,13.26-.79,26.69,1.68,39.79,6.49,1.62,13.14-.24,19.71-.3,19.35-.62,38.78-1.62,58.11.2a212.48,212.48,0,0,0,43.67,1.18c17.11-.92,34.54,2.71,51.42-1.44,5.11-.8,7.94-5.69,9.44-10.18,4.25-11.42.68-24,4.59-35.54,4.72-3.27,12-4,15.94.86,5.51,6.37,2.3,15.05,1.44,22.42-1.74,8.59-1,17.73-4.46,25.9C240.59,70,226.77,76.65,213.11,76.53c-12,1.52-23.88-3-35.86-1.29-36.75,4.35-73.71-4.52-110.41.69-11.7,1.3-25.64,1.82-34.52-7.32-6.47-8.93-5.83-20.77-6.07-31.27C26.7,27.52,25,17.46,27.3,7.81Z"/><path d="M275,9.83c2.94-9.68,17.87-8.75,20.35.7,1.28,13.93-.78,28.25,2.83,41.94,7.53,2.78,15.78,2.42,23.55,1,10.36-2,20.94-.6,31.41-1.43,25.36-1.52,50.36,4.83,75.68,4.37,12.84-.42,26.07.86,38.53-2.68C477,42.63,472,26.82,473.67,13.54c-.09-3.85,3.32-7.48,7.27-7.13,7.17-.93,13.18,6.29,13,13.1.32,8,.42,15.93.16,23.9-.32,8.61-5.67,15.85-10.72,22.42C479.73,70,475.91,75,470.12,76c-17.11,1.1-34.23,2.3-51.34.54-16.81.74-33.07-5.07-49.86-4.19-9.32.3-18.65,1-28,.6-17.42-.62-35.57,5-52.38-1.62-11.1-5.09-13.52-18.94-12.48-29.91C277.27,30.81,274.05,20.29,275,9.83Z"/><path d="M1032.87,13.84c.92-9.18,15.25-10.72,19.11-2.75,5.73,13.05-.94,27.69,3.21,40.89,16.16,6.23,33.83.18,50.58.53,27.28.52,54.53-.35,81.83-.43,10.24-.22,21,1.63,30.87-1.92,7.83-13.2,1.34-29.45,6.71-43.13,5.39-3,14.34-3.05,16.75,3.74,3.76,11.2,1,23.16.1,34.6-1.33,15.15-15.81,26.07-30.33,26.81-16.75.42-33.52.42-50.26-.3-5.31-.52-10.14,2.26-15.39,2.14-18.07-.1-36.17-.64-54.24.14-11.94.4-23.9,1.22-35.82.2-11.8-.68-20.79-11.78-21.93-23.06C1032.37,38.92,1032.51,26.3,1032.87,13.84Z"/><path d="M1476.36,21.25c-.06-4.31.32-10.38,5.29-11.86a10.09,10.09,0,0,1,13.9,5.49c4.57,11.52.76,24.08-1.66,35.64-1.65,8.24-8.2,14.63-15.81,17.67-11.7,4.75-24.52,5.41-37,5.87-16.64.34-33.09,5.27-49.78,3.27-14.14-1.81-28.54-2.39-42.67-.38-15.64,2.7-31.61,1.72-47.31.32-11.28-.44-20.41-8.66-26.12-17.77-3.75-8.12-4.07-17.35-4.47-26.13,0-7-.7-15,3.83-20.93,5.31-.55,13.22-2.31,15.56,4.18,2.07,11.8-1.12,25.29,6.21,35.72,7.67,7.2,19.37,5.92,29.09,5.79,24.62-3,49.54-2.88,74.26-1.26,12,.88,23.57-2.5,35.45-3,12-1.67,24.72-.24,36.28-4.21C1476.08,41,1476.72,30.91,1476.36,21.25Z"/><path d="M1530.22,10.37c5.75-4.51,16.37-.72,16.15,7.13.86,10.14.16,20.48,2.36,30.48,1.3,4.26,6.51,4.67,10.26,4.81,18.69.26,37.38-.77,56-1.69,18.55,2.17,37.2,1.39,55.83,1.85,15.58,1.52,31.49,1.52,46.75-2.37,3.51-1.32,8.07-2.76,9.28-6.81,2.26-9.2,1.2-19.05,4.32-28.07,2.47-7.65,15.19-8.33,18.49-1.08,3.13,5.83.22,12.62,0,18.83-1.5,11.56-2.66,26.07-14,32.5-23.24,11.3-49.82,7.45-74.76,7.67C1625,70.3,1589,73.28,1553,72.74c-9.76,0-16.91-8-22.06-15.41-5.72-8.17-4.66-18.57-5.14-28C1525.78,22.91,1524.89,15.06,1530.22,10.37Z"/><path d="M1490.12,90.83c18.17-3.16,36.38,2.06,54.65,1.56,17.94,3.67,36.13.48,54.22,1.75,10.84.66,21.84-1.19,32.61.7,7.44,2.68,11.14,10.62,14.09,17.41,4.82,9.92-.6,20.55.1,30.87,1,14-.6,28,1.3,42a138.37,138.37,0,0,1,.78,23.91c-1,21.81,1.82,44.09-3.85,65.45-2.78,8.19-7.87,15.45-13.5,21.92-3.78,4.52-10,5.61-15.52,5.63-16.73-.1-33.3-3-50-3.59-13.92.86-27.93,2.14-41.85.66-21.51-4.23-42.53,8.2-64,3.71-9.45-1.52-16.33-9.58-19.57-18.11-4.29-13.51-2.69-27.85-1.94-41.72-1.47-28.61-3.35-57.19-4.53-85.84.76-14.39,1.7-28.81,3.6-43.12,1.71-11,11.28-20.45,22.58-21.12,10.28-.64,20.73.45,30.85-2.08m9.71,18.63c-9.47,1.71-18.95,4-28.66,3.53-4.37.22-9.05-.82-13.18.88-8.82,15.59-3.77,34.3-4.45,51.29-.38,33.36,6,66.47,3.29,99.83-.06,6.35-1.51,15.35,5.77,18.43,8.59,2.37,17.7.71,26.28-1,14.44-3.34,29.4-3.08,44.11-2.12s29.22-.86,43.85-.62c12.62.78,25.3,3.32,38,1.68,4.62-.38,6.27-5.19,7.83-8.81,8.25-18.9,3.2-39.89,6.11-59.73-.32-16.91-2.24-33.8-3-50.71-2.78-14.78,4.93-29.23,1.89-44-.52-3.13-4.43-3.83-7-4.07-9.2-.46-18.43,0-27.59-.82-15.24-1.3-30.55.18-45.79-1.28-10.38-1-21,1.78-31.15-1.56A29.92,29.92,0,0,0,1499.83,109.46Z"/><path d="M39.42,93.52c19.27-1.85,38.66-1.07,57.93-2.89,11.38-.86,24.26-.52,33.43,7.21,8.83,8.54,12,21.42,11.64,33.36-.32,14,0,28-1.5,42-1.35,32.6.88,65.28-1.25,97.85-.2,11.46-8.57,22.88-20.33,24.4-17.22,2.27-34.65.09-51.92.81-12.68,1.12-26.32,4.48-38.48-.81A33.53,33.53,0,0,1,28.48,282c3.54-2.86,8.19-3.7,12.6-4,15.42-.86,30.81-2.36,46.27-2.88,9.66,0,19.37,2.3,29,.56,4.93-7.85,2.88-18,3.66-26.79.74-22.23-1.24-44.47.24-66.69.32-18.37,2.85-36.7,1.79-55.06-.86-6.45-3.45-14.8-10.78-16.22-4.65-.56-9.32.14-14,.44-12.76,1.1-25.7-.7-38.36,1.78-12.38,2.7-25-.14-37.5.72-7,0-15.31,1.62-20.94-3.75a28.49,28.49,0,0,1,.6-13.3C13,91.33,26.7,93.12,39.42,93.52Z"/><path d="M1711.37,95.48a93.62,93.62,0,0,1,46.86-3.57c8.17,1.31,10.87,14.65,3,18.21-14.48,5.71-31.77-2.74-45.27,6.2-3.33,6.79-1.78,14.66-2.59,21.93-3.74,34.8-1.24,69.84-1.68,104.76-.16,10.16-1.16,20.42.3,30.52,16.17,1.14,32.33,2.64,48.54,2.32,9.85-.42,13.24,15.37,4.23,19.17-11.5,4.85-24.06,1-36,1-8.82-.42-17.79.7-26.5-.87-7.4-2.48-9.14-11.13-10.14-17.89-2.08-18,.16-36.14-1.26-54.17a197.8,197.8,0,0,1-.28-28c2.66-29.11-1.5-58.74,4.69-87.49C1698.25,101.21,1705,97.76,1711.37,95.48Z"/><path d="M271.9,94.26c18.47.12,37.16-3.77,55.37.94,11.32,3.18,22.92-1.36,34.32.86,7.91,1.42,17.22,3.55,20.89,11.66,6.09,9.42,6.79,20.7,5.89,31.56,1.94,15.06,1.62,30.27,3.28,45.37,2.05,18.15-3.14,36.17-1.1,54.34,1.73,14.5,1.29,29.61-4.2,43.31-2.73,6.75-10.08,9.62-16.49,11.8-9.41,3.23-19.31.32-28.91,0-38.72-1-77.14,4.57-115.74,6.35-13.34,2.39-29.31,2.47-39.2-8.27-7.71-11.38-8.31-25.69-10.12-38.87-1.32-7.53.48-15,1.48-22.4-3-26.46-1.42-53.15-1.58-79.75,1-12.31-1.44-25.09,2.33-37.09,3.26-10.12,13-16.83,23.21-18.67C216.5,92,231.86,97,247.11,95.12c8.25-.62,16.52-.5,24.79-.86m-75,26.48c-2,8.6-.45,17.61-1.45,26.37-1.2,12-.72,24-.62,36-.7,22.66,2.67,45.22,2,67.88.08,9.05-.29,18.53,3.2,27.06,1.84,4.69,7.27,3.17,11.14,3.07,11.26-1.5,22.67,2.91,33.75-.6,17.07-5,35.12-2,52.46-5.43,12.46-2.81,25.08-.24,37.66-.34,11.06-.64,22.36,2.1,33.28-.22,5.27-10.34,2.78-22.4,2.82-33.54.06-26.61,1.89-53.31-.34-79.9-1-13,.38-26.34-2.82-39.14-.56-3.57-3.91-5.69-7.31-6-10.3-1.44-20.8.81-31-1.3a135.07,135.07,0,0,0-32.5-2c-25.38,1.3-51,2.74-76.28-.46C212.19,111.45,202.75,114.35,196.85,120.74Z"/><path d="M613.55,94.62c8.53-1.38,18.25.88,24,7.71,5.4,8.6,3.28,19.31,3.78,28.93-.26,21.34,3.91,42.53,2.43,63.87-1.45,25.81,1.9,51.79-1.39,77.5-1.72,11-11.88,17.75-21.87,20.47-22.84,5.65-46.5,5.53-69.75,8.22-11.46,1-22.66-2.25-34-2.95-8.05-.18-16,1.14-24.05,1.18-15.29.16-30.39,4-45.72,2.67-9.39-.78-17.41-7.52-21.55-15.71-4.37-9.74-4-20.68-4-31.13,1.5-29.38.24-58.83.92-88.24-.64-19.41-2.48-40.83,8.36-58,7.09-11.2,21.47-9.83,32.87-11.66,12.9-2.8,26.14-.44,39.16-2.08,16-1.94,31.95.8,47.94.66,21,.08,42.06,1.4,62.9-1.44M455.6,118.08c-4.61,1.22-10.68,2.78-11.58,8.31-3.81,18-1.56,36.53-1.9,54.76-.39,16.61,0,33.25.28,49.86.26,13.89-2.21,27.75-1.11,41.64.22,4.46,3.49,9,8.18,9.45,15.14,2.19,30.08-2.36,45.15-2.76,22.69.28,45.39.78,68,2.16,13.88-2,27.76-4.23,41.8-5,6.35-.66,15.09-1,17.53-8.19,6.11-15.87,1-32.92,1-49.29.26-13.36,1.32-26.7,1-40.05-.16-9.31-2-18.53-1.36-27.86.84-11.12-.2-22.26-1.42-33.32-20.41-5-41.81-.94-62.58-2.53-22.58-2.44-45.23,1.67-67.85.18A117.68,117.68,0,0,0,455.6,118.08Z"/><path d="M711.16,93.78c12.44-.87,24.9,1.82,37.34.1,15.87-2.13,31.83.84,47.74-.36,17.28-1.85,34.63-1,51.9.14,10.2.4,20.71.18,30.53,3.44,11.66,5.89,18.41,19.18,17.87,32-.52,15.42,1.94,30.87-.06,46.2-1.61,13.84-1,27.81-.5,41.67,2,19.83.46,39.73-1,59.54-.86,9.48-8.89,16.59-17.26,20-9.32,4-19.67,3-29.53,3-24.66-.66-49.2,2.51-73.84,2.79-12.78-.3-25.22,4.54-38,2.92-11.3-1.32-22.67-2.12-34-3.1-13.72-.58-23.7-13-27.67-25.15-3.88-17.13-.24-34.68.3-51.93-1.14-15.3-1.6-30.65-3.18-45.9-1.46-15.48,2.54-30.63,3.91-45.92,1.26-11,4.76-22.17,12-30.71,5.72-6.81,15.14-7.81,23.43-8.71m101.92,18.31c-13,.06-25.82,2.18-38.78,1.88-17.34-.18-34.67,0-52-.68-7.51-.3-15.91.86-21.57,6.25-7.5,10.42-6.78,23.82-8.1,36-2.28,22.5.28,45,.92,67.56.55,15.43-2.44,31.05.38,46.38,1.23,4.87,3.05,11.54,8.92,12.4,9.73,1.28,19.71.64,29.31,3,12.28,3,24.82-.38,37.07-1.81,10.22-1.94,20.64-1.36,31-1.56,13.34-.1,26.59-2.28,39.95-2,9.17-.1,18.35,1.42,27.52.32,3.65-.44,8.71-2.37,7.91-7,.06-14.61,2.41-29.21.6-43.82.26-25.26,1.71-50.51.47-75.79-.87-10.92,1.52-22.22-1.89-32.84-1.32-4.63-6.45-6.17-10.75-6.33C847.06,113.29,830.09,111.73,813.08,112.09Z"/><path d="M986.72,94a194.12,194.12,0,0,1,53.4.26c23.88.84,47.78.54,71.66-.06,12.86-1.12,26,8.19,28.1,21.11,2.65,10.54-2.34,21.18-.14,31.74a132,132,0,0,1,2.39,20c.6,30-.34,59.93.4,89.88,0,9.19-.9,18.95-5.83,26.93-7.85,10.75-22.16,14-34.78,13.9-14.76-.92-29.6,2-44.27-.68-11.24-2.23-22.47.74-33.67,1.62-19.29,2-38.72.66-58.05,1.84-9.22.44-18.67-.86-27.11-4.68-6.93-3.57-9.89-11.68-10.89-19-1.61-15.26-1.13-30.63-.74-45.94,2.3-31.91-3.41-64,1.16-95.82,3.26-14.57,8.57-31.58,23.92-37.41,11.19-3,23-2.28,34.45-3.76m20.11,18.35c-14.32,1.5-28.7,2.3-43,4-10.29.62-15.08,11.88-16,20.79-1.56,14.65-1.84,29.41-2.93,44.1,1.53,15.12,4,30.29,3,45.52-1.88,13.82-1.62,27.86-1,41.75.8,4.41,1.24,12,7.25,11.86,20.53,2,41.12-.62,61.64-1.14,8.39-.12,16.76-.8,25.1-1.57,14.28-1.52,28.44,3.21,42.72.81,10.38-1.65,20.84.06,31.23-.53,8.16-2.24,7.52-12.34,7.48-19.05,1-29.27.7-58.58-.23-87.85-.38-6.73-2.08-13.3-2.64-20-.78-9.74,2.73-19.4,1.2-29.11-.66-3.13-2-7.38-5.77-7.64-9.71-1.34-19.43.7-29.16.36-16.69-.36-33.38.26-50.06-.18C1026.12,113.39,1016.57,110.55,1006.83,112.39Z"/><path d="M1284.25,94c27.73.26,55.59.22,83.17,3.84,12,.88,21.16,10.72,26.35,20.88,5,9.48,3.34,20.43,2.22,30.61-3.75,27.13,0,54.44.64,81.64,1.54,16.19,3.23,33.18-2.38,48.81a36.08,36.08,0,0,1-20.15,17.45c-11.44,2.08-23.18.28-34.68,1.8-15.91,2.12-32-.12-47.94,2-19.29,2.59-38.64-2.7-57.93,0-13.36,1.65-27.7.37-39.42-6.71-9.9-5.15-10.52-17.85-11.48-27.64-.78-29.86,0-59.71-.42-89.58,1.1-20.68-1.72-42,5.13-61.93,2.5-5.77,7.47-10,12.26-13.84,5.51-4.81,13.28-2.91,20-3.69,21.49-2.54,43.17-1.18,64.68-3.6m8,20c-22.92.4-45.74,2.79-68.67,2.39-6.39.34-15.11-.61-18.63,6.09-2.81,6.93-1.53,14.62-2.07,21.91-.74,13.53-1.42,27.09-.9,40.67.76,20.8-.9,41.64.7,62.43,1,9.82-2.4,20,.84,29.55,3.89,3.27,9.22,3.77,14.09,4.41,21.45,1.42,43-2.52,64.38.42,13.88,2.09,27.52-2.68,41.4-1.5,11.38.56,22.7-1.12,34-1.6,5-.48,10.44-.32,15-2.81,3.19-1.86,3.65-5.85,4.25-9.13a175.54,175.54,0,0,0,.46-37.93c-.52-20.62-1.94-41.23-1.46-61.87-1.12-10.11-.24-20.19,1.48-30.17,1.52-7.11-1.38-16.19-9.11-18.11-12-3.19-24.3-5.89-36.74-4.85C1318.27,115,1305.25,113.51,1292.23,114.09Z"/><path d="M265.27,125.29c12.36-3.22,25.87-4.93,38.18-.48,15.53,5.33,29.53,16.09,37,30.93,8.26,14.69,8.5,32.4,5.31,48.57-1.8,7.89-6.87,14.52-9,22.3,4.54,4.92,11.16,8.69,12.6,15.74,1.5,6.59,2,14.73-3.11,20-4.24,4.83-11.28,4.45-17.14,4.18-6.19-.34-10.78-5.06-16.29-7.31-8.61,2.15-16.49,6.77-25.36,8-16,2.88-34.54-.26-45.79-12.83-7.48-8.21-14.33-17.47-17.53-28.28-6.61-22.66-9.24-48.23,1.94-69.95,6.41-16.46,22.86-26.3,39.16-30.89m-26.38,23.62C230,161,225,176.08,225.71,191.16c.52,20.82,5.71,43.06,21.21,58,9.18,10.9,24.68,12.63,38,11,9.49-.86,17.78-6,26.78-8.57,5.13-1.28,8.83,3.43,12.94,5.59,4.91,3.67,11.62,2.7,16.87.32,1.56-5.35,2-11.48-.49-16.61-3.3-4.15-8.09-6.69-11.61-10.6-1.21-9.59,6.11-17.11,8.71-25.8,4.55-18.41,2.42-39.51-10-54.54-10.17-11.8-25.1-20.59-41-20.41C269.42,129.32,251.17,136,238.89,148.91Z"/><path d="M743.83,136.71c14.85-9.9,33.4-8.67,50.44-8.83,12.12.42,24.52-.06,36.34,3.08,6.17,1.54,7.63,8.66,7.33,14.13.2,8.17-5.12,16.2-13,18.71-14.22,4.69-29.34.22-43.83,2.56-5.71,1.8-4.38,9.36-4.46,14,8.37.8,17.18-.16,25.06,3.26,11.27,4.59,10.47,22,1.78,28.69-7.87,4.53-17.45,3.47-25.9,6.27-3.21,6-2.73,13.23-1.06,19.6,14.62.48,29.18-2.09,43.79-1.49,6.63,0,13.52,4,15.24,10.68,1.54,6.27,1.48,13.41-1.74,19.16-5,6.51-13.92,7.51-21.54,7.71-15.84.26-31.69.62-47.49-.68-9.52-1.33-19.67-5.81-24.4-14.67-3.95-6.55-5.31-14.28-5.27-21.84,0-24,1.26-48.06-1.4-72-1.08-10.16.62-22.56,10.07-28.41m29.51-1c-9.73.38-20.05,2.3-27.68,8.79-6.45,6.27-4.69,16-4.25,24.07,2.34,22.76,1.36,45.69,1.28,68.53,0,8.26,1.73,17.49,8.2,23.24,8.85,7,20.77,6.11,31.39,6.94,13.36.22,26.94.9,40.1-1.77,5.53-1.26,5.57-8,6.29-12.52,1.1-4.21-2.34-8.43-6.57-8.63-15.13-1.75-30.19,1.74-45.29,1.62-8-1-9.28-10.52-8.82-17,.7-5.73.2-13.16,5.43-16.91,7.79-3.1,16.53-2.32,24.44-5.11,6.43-3.06,7.23-15.12-.44-17.23-8.67-3.14-18-.54-26.9-1.22-1.59-9.08-3.47-21.78,5.22-27.89,14.87-5.75,31.41.88,46.58-3.54,7.29-2.57,11-12.21,6.93-18.92C811,134.49,791.93,134.73,773.34,135.75Z"/><path d="M1494.13,128.22c4.48-1.69,10.15-1.17,13.5,2.54,8.89,8.78,13.54,20.76,21.65,30.15,2.11,2.47,5.39,5.37,8.82,3.41,9.81-7.31,15.72-18.37,21.11-29,3.67-8.34,14.94-9,22.59-6.87,12.71,7,12.59,24.3,8.92,36.56-6.67,15.51-22.34,24.3-31.91,37.64-4.09,16.91,3.4,34.72-.32,51.69-3.45,12.79-19.71,18-30.83,12.08-6.11-3.4-7.15-11-7.19-17.29,0-15.14-.32-30.47-4.17-45.19-3.7-10-12.72-16.61-19-24.85-7.47-9.71-15.38-20.95-14.08-33.85a20,20,0,0,1,11-17m-2.91,26.58c3.87,10.5,11.06,19.44,18.61,27.55,5.47,5.93,11.9,11.76,13.78,20,3.37,15.33,4.27,31.08,4.37,46.74.34,3.49-.26,7.72,2.62,10.36,7.22,5.27,19.7.84,20.68-8.51,2.4-15.91-2.25-31.92-.7-47.9a12.3,12.3,0,0,1,4.08-8.4c9.06-8.89,19.29-16.83,26.48-27.45,5.45-8.41,6.37-20.37.95-29-3.85-6-13.63-4.48-16.51,1.67-6.27,10.63-12.4,21.71-22,29.79a12.11,12.11,0,0,1-14.34,1.24c-13.18-9.52-16.38-27.87-30.19-36.68C1490.46,136.83,1488.56,147.25,1491.22,154.8Z"/><path d="M999.42,136.91c16.37-7.11,34.64-8.11,52.24-6.85,7.33,1,16,2.18,20.34,9,7.17,11,7.79,25.13,5.2,37.67-1.54,8.41-7.13,15.11-10.91,22.54,6.43,12,17.68,21.72,19.39,35.94,3.22,12.24-8.12,23.72-19.93,24.18-8.24-.92-12.8-8.77-17.87-14.38-6.59-7.17-10.78-16.05-16.57-23.78-3.54-.94-7.25-.52-10.74.18-1.92,13.14.95,27.79-6.77,39.47-4.18,7.07-13.44,8.83-20.85,6.77a17,17,0,0,1-10.28-14.77C980.43,223,978.41,193,978.75,163c-.9-12.51,10.25-21.62,20.67-26.13m.24,7.87c-7.11,3.41-13.92,9.7-13.24,18.3-.28,30.53.24,61.2,4.71,91.45.52,8.8,14.58,8,17.4,1,6.49-12.71,2.75-27.41,4.77-41,7.49-.73,15.79-2.53,22.9.26,8.51,12.64,15.58,27,28,36.42,8.48,2.16,17.09-7.79,14.07-16-2.75-14.3-15-23.54-21.18-36.08,2.09-4,5-7.57,7.47-11.38,7.84-11.42,8.42-26.75,4.09-39.61-3.35-9.1-14.24-11-22.74-11.46C1030.27,136.59,1013.92,137.71,999.66,144.78Z"/><path d="M1231.27,136.89c28.58-8.81,58.83-2.82,88.12-5.69,10.17-.5,22.31-2,30.43,5.53,7.61,9.64,3,25.69-7.82,31-9.07,4.63-19.53,3.63-29.32,4.85-2.91,23.22,2,46.8-1.44,70-1.39,8.06.06,19.12-8.58,23.48-8.23,3.61-20.53,4.27-26.1-4.16-3.71-4.75-4.13-11-4.31-16.81-.42-25.13,2.09-50.33.34-75.41-14.12-3.27-28.6,2.12-42.72-.62-16-2.83-13-29.07,1.4-32.18m2.52,6.71c-9.29.9-10.59,19.4,0,18.82,13.1.26,26.24-1.63,39.36-.47,5.81.06,6.8,7.1,7.28,11.6,1.08,22.5-.72,45-.68,67.52,0,6.19.3,12.7,3.42,18.23,6.13,2.15,17.83,3.71,19.09-5.11,5.73-25.32.92-51.31,2.22-76.93.3-4.75,1.43-10.3,5.91-12.9,9.1-1,18.77,1.32,27.37-2.77,7.13-3,10.67-12.68,7.07-19.51-6.45-5.41-15.59-3.73-23.32-3.63C1292.27,140.18,1262.46,136.47,1233.79,143.6Z"/><path d="M461,141.32c4.16-7.35,13.68-8.5,21.25-7.35,6.79,1.6,11,8.21,13.24,14.38,3.79,12.4,4.53,25.46,7.23,38.09,5.63-3.85,10.82-9.28,18-9.92,6.17-.32,12.22,2,17.47,5.07,6.57,3.92,9.71,11.2,13.7,17.37,1.88-14.19,6.21-27.89,11.26-41.25,2.28-5.27,4.56-11,9.31-14.57,7.81-4.91,18.33-2.58,25.1,3.05,5.11,5.39,5.27,13.5,4.55,20.45-2.16,17-6.07,33.76-9.28,50.61-2.42,12.18-7.37,24.72-17.94,32.08-8.6,7.35-21.88,9.23-31.61,2.94-8.72-5-13-14.52-17.71-22.88-3.81,10.42-7.59,22.86-18.87,27.43-11,3.44-24.68,1.76-33-6.73-6-7.38-5.61-17.59-7.56-26.47-3.38-16.63-4.48-33.56-6-50.43-.84-10.53-4.86-22.05.91-31.87m6.87,3.14c-4.43,9-.71,19.24-.28,28.71a366,366,0,0,0,5.8,49.61c1.41,7.39,1.87,15.29,5.61,22,6,6.73,16.37,7,24.58,5.13,11.94-4.81,11.28-20.46,20-28.37,2-2.23,5.69-.78,7,1.56,4.74,7.21,7.43,16.07,14.52,21.54,7.35,6.19,18.91,5,25.78-1.39,9.15-6.71,12.94-18,15-28.68,3.31-18.4,8.14-36.67,9.18-55.4.8-11.14-17.51-16.07-21.82-5.59-5.27,9.7-7.73,20.62-10.85,31.15-2.65,8.82-2.07,18.38-5.23,27-.66.6-2,1.78-2.61,2.36-7.71-1.18-8.83-11-12.4-16.62-4.06-10.84-19.39-17.9-29.08-10-5.31,4.31-7.41,11.16-11.56,16.41l-4.43.8c-2-9-1.2-18.37-3.24-27.39-2.15-10.48-2.25-21.88-7.62-31.39C482.62,139.38,472.48,139.13,467.88,144.46Z"/><path d="M281.94,154.4c6.51-1,14.16-2.28,19.77,2.12,7.31,5.53,14.4,13,14.89,22.72.78,8.8.6,21-9.42,24.49-3.69-2.53-6.63-6.09-10.62-8.14-5.69-1.44-10.27,4.17-10.23,9.46-1.22,8.45,5,15.25,6.17,23.22-5.45,7.41-16.51,10.66-24.66,5.89-7.09-4.43-10.72-12.48-13.54-20-5.31-15.32-5.67-33.87,4.58-47.26,5.07-7.73,14.51-10.58,23.06-12.48m-15.06,14.49c-13.54,14.86-9.92,38.36.06,54.17,3.06,5.95,10.91,7.31,16.36,3.85-2.84-11.66-8.81-27.91,3.37-36.31,7.05-5.89,15.16,0,22.33,2.15,3.25-11.72-1.56-25.47-13.18-30.38C286.07,159.09,274.63,162.52,266.88,168.89Z"/><path d="M1020.49,159.87a41.11,41.11,0,0,1,21.78,1c4.89,2.23,3.74,8.86,2.12,12.9-4.57,8.86-13.82,14.27-23,17.37-3.85,1.91-9.8-.36-10.18-5a91.78,91.78,0,0,1-.34-18.6c.26-4.82,5.59-6.79,9.59-7.69m-2,7.75c-.42,5.43-1.24,11.38,1.28,16.45,7.59-3.08,17.49-7.51,18.09-16.91A40.67,40.67,0,0,0,1018.51,167.62Z"/><path d="M1581.1,314c14.79.06,29.25-4,44.05-4.37,23.9-.46,47.74,1.78,71.62,2.66,9.09.95,16.62,8.68,18.53,17.45,3.1,13.41,2.72,27.29,2.66,41-.2,6.15.28,12.74-2.86,18.31-4.07,2.18-9.16,3.5-13.24.58-4.93-2.19-3.85-8.36-4.41-12.72-1-11.42.5-22.82.22-34.24-.22-3.69-1.16-8.62-5.35-9.62-4.35-1.48-9-.72-13.5-.84-21.11.54-42.35-5.13-63.3-.54-13.34,2.54-27,1.84-40.45,2.9-20.61,2.33-41.58-2.18-62,2.25-5.55,2.08-3,9.45-3.55,14-.46,10.7,4.39,21.22,2.26,31.86-1.64,9.25-16.58,9.67-19,.74-3.38-15.89-5.47-32.48-1.46-48.49,1.1-13.24,15.79-20.31,27.67-20.61C1539.7,314.18,1560.39,313.84,1581.1,314Z"/><path d="M510.66,313.78c14.27,0,28.47-3.77,42.73-1.43,13.64,2.19,27.51.81,41.21,2.47,18.81,1.84,37.7-1.18,56.47.74,13.94.94,28.16-.3,41.82,3.17,4.71,1.42,7.8,5.91,8.68,10.61,4.48,20.5,10.23,41.42,7.47,62.57-1.7,9.74-18.61,7.72-19.31-1.7-.62-8.38.4-16.93-1.78-25.18-2.37-8.88-3.61-18.06-6.37-26.85-29.51-3.89-59.32-1.9-89-2.71-27.06.77-54.22-6.93-81.08-1.18-3,8.52-.67,17.73-.47,26.53.18,9.25,1.61,18.63.12,27.81-1.4,9.75-18.26,9.31-19.21-.36-.88-20.3-5-40.88-.36-61C493.36,318.77,502.37,313.54,510.66,313.78Z"/><path d="M1003.93,316.86c8.53-6.75,19.87-5.47,30-5.43,11.31-.08,22.55,2.75,33.85,1.2,22.67-2.74,45.23,5.55,67.85,1.55,13.38-2.39,27-1.49,40.52-2.31,7.85-.66,17.25-1.3,22.44,5.95,10.53,13.91,7.59,32.66,8.39,49-.46,5.81,2,13.94-4.33,17.35-5.57,4.09-14.24.16-15.62-6.35-2.23-14.47.86-29.43-2.93-43.72-2.5-3.5-7-1.44-10.43-1.4-10.42,1.62-21,.54-31.45,1.38-24.12,2.65-48.3-1.94-72.48-.48-18.27,1.3-36.94-5.21-54.89.28-5.22,14.29.59,29.65.14,44.34-1.54,8.63-15.2,10.5-19.07,2.56-2.6-9.09-3-18.69-3.66-28.07C992.33,340.22,992.85,325,1003.93,316.86Z"/><path d="M70.34,313.88c9.32-3,19.34-1.83,29-2.07,32.47,1.15,65.79-1.84,97.26,8.08,6.45,2,10.89,7.93,13.2,14,3.26,9.8,2.32,20.32,3.88,30.45.44,7.4,2.93,14.85,1.48,22.24-1.08,10.48-19.33,9.62-20.51-.44-1-14,.62-28.27-3.16-42-1.65-6.25-9-7.49-14.43-8.7-11.81-1.8-23.83-2.08-35.73-2.86-14.67,1.42-29.29-1.3-44-.72-7.92.16-15.89,1-23.84.28C64.34,332.41,62.89,317.06,70.34,313.88Z"/><path d="M744.92,323.51c3.88-8,13.54-9.39,21.41-10.43,20-3.13,39.92,2.68,59.94,2.56,8.63-.62,17.2-2.32,25.88-1.84,15.36.52,30.64-2.61,46-1.13,13.24,1.21,26.44,2.63,39.72,3.21,13.76.32,24.36,12.7,27,25.42,1.24,10.44,0,21,.56,31.5-.4,6.89.7,14.44-2.61,20.79-4.67,8.48-19.91,4.53-19.85-5.18.14-15.07,4-30.18,1.06-45.22-1.08-5.19-6.71-6.93-11.34-7.32-12.92-1.24-26-.92-38.82-3-10.33-1.88-20.55,1.74-30.89,1A96.11,96.11,0,0,0,840.61,335c-25.5,4.39-51.14-6.35-76.52-.32-6.71,10.8-5.39,24.4-3.81,36.45,1.42,7.75.18,16.42-5.07,22.53a31.49,31.49,0,0,1-13.32-.4c-3.62-7.69-2.18-16.36-2.34-24.52C739.81,353.65,738,337.52,744.92,323.51Z"/><path d="M1246.67,319.81c8.84-6.61,20.6-5.31,31-6.57,16.51-2.17,33.17-.67,49.74-.87,28.65-.1,57.25.67,85.88,1.39,10.77.36,21.75-1.47,32.35.92,11.38,5.13,16.48,18.23,17.35,30,1,14.32,4.1,28.83,1.22,43.11-5.41,2.77-14.2,7.24-17.69-.54-4.53-13-.5-27.12-3.27-40.45-.42-4.44-1.64-8.87-4.64-12.24-15-1.94-30.21.68-45.29-.38-21.28-1.6-42.61-.1-63.91-.4-14,.26-27.92-3.06-41.9-1.18-8.44,1.26-17,2.06-25.34,3.47-4.11,15.1,3.38,31-1.57,45.95-1.56,4.75-6.91,8.62-11.95,7.34-6.87-3.39-7.48-11.76-7.58-18.49,0-11.36-.6-22.7-.52-34C1240.42,330.67,1241.24,323.67,1246.67,319.81Z"/><path d="M265.15,317C289,315,313,312.9,337,314.92c11.24,1.12,22.53-.14,33.77.42,23.44,1.62,47.28-1.62,70.43,3.53,6.49,2.86,12.92,8.37,13.55,15.92,1.58,11.92.36,24,1,36,.3,9.49,0,20.51-7.15,27.68-4.93,3.19-15.23,1.53-14.75-6-.12-17.07,3.59-34.24.86-51.29a6.16,6.16,0,0,0-6.37-5.12c-35.11-.39-70.23-.15-105.32-.89-14-1.58-28,.87-41.95,1.63-5.63.82-11.8,0-16.93,2.8-.92,12.4.14,24.84,0,37.25-.18,5.3-1.34,11.62-6.17,14.66-4.66.88-11.3,1.44-13.32-4-1.66-6.77-.88-13.84-1-20.73.36-11.18-.82-22.52,1.46-33.56C246.48,323.65,256.24,317.92,265.15,317Z"/></g><g id="_c0d0f0ff" data-name="#c0d0f0ff"><path class="cls-2" d="M1499.83,109.46a29.92,29.92,0,0,1,16.21.93c10.1,3.34,20.77.52,31.15,1.56,15.24,1.46,30.55,0,45.79,1.28,9.16.82,18.39.36,27.59.82,2.6.24,6.51.94,7,4.07,3,14.74-4.67,29.19-1.89,44,.79,16.91,2.71,33.8,3,50.71-2.91,19.84,2.14,40.83-6.11,59.73-1.56,3.62-3.21,8.43-7.83,8.81-12.66,1.64-25.34-.9-38-1.68-14.63-.24-29.23,1.52-43.85.62s-29.67-1.22-44.11,2.12c-8.58,1.73-17.69,3.39-26.28,1-7.28-3.08-5.83-12.08-5.77-18.43,2.66-33.36-3.67-66.47-3.29-99.83.68-17-4.37-35.7,4.45-51.29,4.13-1.7,8.81-.66,13.18-.88,9.71.46,19.19-1.82,28.66-3.53m-5.7,18.76a20,20,0,0,0-11,17c-1.3,12.9,6.61,24.14,14.08,33.85,6.33,8.24,15.35,14.83,19,24.85,3.85,14.72,4.15,30.05,4.17,45.19,0,6.3,1.08,13.89,7.19,17.29,11.12,6,27.38.71,30.83-12.08,3.72-17-3.77-34.78.32-51.69,9.57-13.34,25.24-22.13,31.91-37.64,3.67-12.26,3.79-29.51-8.92-36.56-7.65-2.09-18.92-1.47-22.59,6.87-5.39,10.68-11.3,21.74-21.11,29-3.43,2-6.71-.94-8.82-3.41-8.11-9.39-12.76-21.37-21.65-30.15C1504.28,127.05,1498.61,126.53,1494.13,128.22Z"/></g><g id="_ff98a0ff" data-name="#ff98a0ff"><path class="cls-3" d="M196.85,120.74c5.9-6.39,15.34-9.29,23.91-8.49,25.3,3.2,50.9,1.76,76.28.46a135.07,135.07,0,0,1,32.5,2c10.25,2.11,20.75-.14,31,1.3,3.4.27,6.75,2.39,7.31,6,3.2,12.8,1.78,26.12,2.82,39.14,2.23,26.59.4,53.29.34,79.9,0,11.14,2.45,23.2-2.82,33.54-10.92,2.32-22.22-.42-33.28.22-12.58.1-25.2-2.47-37.66.34-17.34,3.47-35.39.48-52.46,5.43-11.08,3.51-22.49-.9-33.75.6-3.87.1-9.3,1.62-11.14-3.07-3.49-8.53-3.12-18-3.2-27.06.7-22.66-2.67-45.22-2-67.88-.1-12-.58-24,.62-36,1-8.76-.56-17.77,1.45-26.37m68.42,4.55c-16.3,4.59-32.75,14.43-39.16,30.89-11.18,21.72-8.55,47.29-1.94,69.95,3.2,10.81,10.05,20.07,17.53,28.28C253,267,271.5,270.12,287.49,267.24c8.87-1.27,16.75-5.89,25.36-8,5.51,2.25,10.1,7,16.29,7.31,5.86.27,12.9.65,17.14-4.18,5.07-5.25,4.61-13.39,3.11-20-1.44-7-8.06-10.82-12.6-15.74,2.1-7.78,7.17-14.41,9-22.3,3.19-16.17,2.95-33.88-5.31-48.57-7.47-14.84-21.47-25.6-37-30.93C291.14,120.36,277.63,122.07,265.27,125.29Z"/><path class="cls-3" d="M266.88,168.89c7.75-6.37,19.19-9.8,28.94-6.52,11.62,4.91,16.43,18.66,13.18,30.38-7.17-2.11-15.28-8-22.33-2.15-12.18,8.4-6.21,24.65-3.37,36.31-5.45,3.46-13.3,2.1-16.36-3.85C257,207.25,253.34,183.75,266.88,168.89Z"/></g><g id="_ffe8c0ff" data-name="#ffe8c0ff"><path class="cls-4" d="M813.08,112.09c17-.36,34,1.2,50.95,2,4.3.16,9.43,1.7,10.75,6.33,3.41,10.62,1,21.92,1.89,32.84,1.24,25.28-.21,50.53-.47,75.79,1.81,14.61-.54,29.21-.6,43.82.8,4.6-4.26,6.53-7.91,7-9.17,1.1-18.35-.42-27.52-.32-13.36-.26-26.61,1.92-39.95,2-10.35.2-20.77-.38-31,1.56-12.25,1.43-24.79,4.85-37.07,1.81-9.6-2.39-19.58-1.75-29.31-3-5.87-.86-7.69-7.53-8.92-12.4-2.82-15.33.17-31-.38-46.38-.64-22.52-3.2-45.06-.92-67.56,1.32-12.18.6-25.58,8.1-36,5.66-5.39,14.06-6.55,21.57-6.25,17.33.66,34.66.5,52,.68,13,.3,25.82-1.82,38.78-1.88m-69.25,24.62c-9.45,5.85-11.15,18.25-10.07,28.41,2.66,23.9,1.4,48,1.4,72,0,7.56,1.32,15.29,5.27,21.84,4.73,8.86,14.88,13.34,24.4,14.67,15.8,1.3,31.65.94,47.49.68,7.62-.2,16.53-1.2,21.54-7.71,3.22-5.75,3.28-12.89,1.74-19.16-1.72-6.71-8.61-10.68-15.24-10.68-14.61-.6-29.17,2-43.79,1.49-1.67-6.37-2.15-13.63,1.06-19.6,8.45-2.8,18-1.74,25.9-6.27,8.69-6.71,9.49-24.1-1.78-28.69-7.88-3.42-16.69-2.46-25.06-3.26.08-4.67-1.25-12.23,4.46-14,14.49-2.34,29.61,2.13,43.83-2.56,7.84-2.51,13.16-10.54,13-18.71.3-5.47-1.16-12.59-7.33-14.13-11.82-3.14-24.22-2.66-36.34-3.08C777.23,128,758.68,126.81,743.83,136.71Z"/></g><g id="_d8f0c0ff" data-name="#d8f0c0ff"><path class="cls-5" d="M1006.83,112.39c9.74-1.84,19.29,1,28.89,2.12,16.68.44,33.37-.18,50.06.18,9.73.34,19.45-1.7,29.16-.36,3.79.26,5.11,4.51,5.77,7.64,1.53,9.71-2,19.37-1.2,29.11.56,6.71,2.26,13.28,2.64,20,.93,29.27,1.19,58.58.23,87.85,0,6.71.68,16.81-7.48,19.05-10.39.59-20.85-1.12-31.23.53-14.28,2.4-28.44-2.33-42.72-.81-8.34.77-16.71,1.45-25.1,1.57-20.52.52-41.11,3.18-61.64,1.14-6,.1-6.45-7.45-7.25-11.86-.6-13.89-.86-27.93,1-41.75,1-15.23-1.48-30.4-3-45.52,1.09-14.69,1.37-29.45,2.93-44.1.9-8.91,5.69-20.17,16-20.79,14.25-1.71,28.63-2.51,43-4m-7.41,24.52C989,141.42,977.85,150.53,978.75,163c-.34,30,1.68,60,3.92,89.85A17,17,0,0,0,993,267.66c7.41,2.06,16.67.3,20.85-6.77,7.72-11.68,4.85-26.33,6.77-39.47,3.49-.7,7.2-1.12,10.74-.18,5.79,7.73,10,16.61,16.57,23.78,5.07,5.61,9.63,13.46,17.87,14.38,11.81-.46,23.15-11.94,19.93-24.18-1.71-14.22-13-24-19.39-35.94,3.78-7.43,9.37-14.13,10.91-22.54,2.59-12.54,2-26.69-5.2-37.67-4.29-6.83-13-8-20.34-9C1034.06,128.8,1015.79,129.8,999.42,136.91Z"/><path class="cls-5" d="M1018.51,167.62a40.67,40.67,0,0,1,19.37-.46c-.6,9.4-10.5,13.83-18.09,16.91C1017.27,179,1018.09,173.05,1018.51,167.62Z"/></g><g id="_b8e8d8ff" data-name="#b8e8d8ff"><path class="cls-6" d="M1292.23,114.09c13-.58,26,.94,39.06-.1,12.44-1,24.78,1.66,36.74,4.85,7.73,1.92,10.63,11,9.11,18.11-1.72,10-2.6,20.06-1.48,30.17-.48,20.64.94,41.25,1.46,61.87a175.54,175.54,0,0,1-.46,37.93c-.6,3.28-1.06,7.27-4.25,9.13-4.56,2.49-10,2.33-15,2.81-11.34.48-22.66,2.16-34,1.6-13.88-1.18-27.52,3.59-41.4,1.5-21.4-2.94-42.93,1-64.38-.42-4.87-.64-10.2-1.14-14.09-4.41-3.24-9.53.12-19.73-.84-29.55-1.6-20.79.06-41.63-.7-62.43-.52-13.58.16-27.14.9-40.67.54-7.29-.74-15,2.07-21.91,3.52-6.7,12.24-5.75,18.63-6.09,22.93.4,45.75-2,68.67-2.39m-61,22.8c-14.38,3.11-17.37,29.35-1.4,32.18,14.12,2.74,28.6-2.65,42.72.62,1.75,25.08-.76,50.28-.34,75.41.18,5.79.6,12.06,4.31,16.81,5.57,8.43,17.87,7.77,26.1,4.16,8.64-4.36,7.19-15.42,8.58-23.48,3.4-23.22-1.47-46.8,1.44-70,9.79-1.22,20.25-.22,29.32-4.85,10.86-5.3,15.43-21.35,7.82-31-8.12-7.51-20.26-6-30.43-5.53C1290.1,134.07,1259.85,128.08,1231.27,136.89Z"/></g><g id="_ffc0b0ff" data-name="#ffc0b0ff"><path class="cls-7" d="M455.6,118.08a117.68,117.68,0,0,1,35.15-2.61c22.62,1.49,45.27-2.62,67.85-.18,20.77,1.59,42.17-2.46,62.58,2.53,1.22,11.06,2.26,22.2,1.42,33.32-.6,9.33,1.2,18.55,1.36,27.86.32,13.35-.74,26.69-1,40.05,0,16.37,5.11,33.42-1,49.29-2.44,7.23-11.18,7.53-17.53,8.19-14,.74-27.92,2.93-41.8,5-22.62-1.38-45.32-1.88-68-2.16-15.07.4-30,5-45.15,2.76-4.69-.42-8-5-8.18-9.45-1.1-13.89,1.37-27.75,1.11-41.64-.3-16.61-.67-33.25-.28-49.86.34-18.23-1.91-36.79,1.9-54.76.9-5.53,7-7.09,11.58-8.31M461,141.32c-5.77,9.82-1.75,21.34-.91,31.87,1.53,16.87,2.63,33.8,6,50.43,1.95,8.88,1.53,19.09,7.56,26.47,8.35,8.49,22,10.17,33,6.73,11.28-4.57,15.06-17,18.87-27.43,4.75,8.36,9,17.85,17.71,22.88,9.73,6.29,23,4.41,31.61-2.94,10.57-7.36,15.52-19.9,17.94-32.08,3.21-16.85,7.12-33.58,9.28-50.61.72-6.95.56-15.06-4.55-20.45-6.77-5.63-17.29-8-25.1-3.05-4.75,3.53-7,9.3-9.31,14.57-5,13.36-9.38,27.06-11.26,41.25-4-6.17-7.13-13.45-13.7-17.37-5.25-3.11-11.3-5.39-17.47-5.07-7.17.64-12.36,6.07-18,9.92-2.7-12.63-3.44-25.69-7.23-38.09-2.22-6.17-6.45-12.78-13.24-14.38C474.69,132.82,465.17,134,461,141.32Z"/></g></svg>