<svg xmlns="http://www.w3.org/2000/svg" viewBox="0 0 500 500"><defs><style>.cls-1{fill:#fff;}.cls-2{fill:#ff98a0;}</style></defs><g id="Square_Logo" data-name="Square Logo"><path class="cls-1" d="M146.43,138.35c28.33-29.9,70.44-45.19,111.26-44.59,36.76-.41,71.22,19.85,94.67,47.08,28.57,34.68,33.49,83.37,23,125.84-6,20-22.9,37.41-20.09,59.52,8.11,9,19.17,14.88,26.77,24.46,5.67,11.84,4.75,26,1.15,38.32-12.11,5.49-27.59,7.74-38.93-.73-9.49-5-18-15.85-29.85-12.9-20.78,5.94-39.9,17.78-61.78,19.76-30.73,3.73-66.48-.28-87.67-25.43-35.75-34.5-47.73-85.81-48.93-133.86-1.7-34.78,10-69.56,30.41-97.47M245.75,151c-19.71,4.37-41.51,11-53.21,28.79-23.63,30.91-22.8,73.7-10.55,109,6.5,17.41,14.88,36,31.24,46.2,18.8,11,44.32,3.5,56.9-13.59-2.68-18.38-17-34.08-14.24-53.57-.09-12.21,10.46-25.15,23.59-21.83,9.21,4.74,16,12.94,24.51,18.79,23.12-8.11,23.54-36.2,21.74-56.52-1.15-22.29-17.5-39.66-34.37-52.42C278.42,145.77,260.77,148.81,245.75,151Z"/><path d="M222.58,12.27c42.62.28,85.74-8.7,127.75,2.17,26.13,7.32,52.89-3.13,79.2,2,18.24,3.27,39.71,8.2,48.19,26.9,14,21.74,15.66,47.77,13.59,72.83,4.47,34.73,3.73,69.83,7.56,104.65,4.74,41.88-7.24,83.47-2.54,125.39,4,33.44,3,68.31-9.67,99.91-6.31,15.57-23.27,22.21-38.06,27.23-21.7,7.46-44.55.73-66.71-.05-89.33-2.35-178,10.55-267,14.65-30.78,5.53-67.63,5.71-90.44-19.07C6.65,442.6,5.27,409.57,1.07,379.17c-3-17.36,1.11-34.55,3.41-51.68-6.86-61-3.27-122.62-3.64-184,2.31-28.42-3.31-57.9,5.39-85.59,7.51-23.35,30.09-38.83,53.54-43.07,35-7.74,70.44,3.73,105.64-.6,19-1.42,38.1-1.15,57.17-2M49.45,73.35C44.79,93.21,48.39,114,46.08,134.2c-2.76,27.64-1.65,55.37-1.42,83.1C43,269.59,50.83,321.64,49.22,373.92c.18,20.87-.69,42.75,7.37,62.42,4.24,10.82,16.77,7.32,25.71,7.09,26-3.45,52.29,6.73,77.86-1.38,39.39-11.42,81-4.51,121-12.53,28.75-6.49,57.87-.55,86.89-.78,25.52-1.48,51.6,4.83,76.8-.51,12.16-23.86,6.4-51.68,6.5-77.39.14-61.4,4.37-123-.79-184.35-2.39-30,.88-60.75-6.49-90.28-1.29-8.25-9-13.13-16.86-13.77-23.78-3.32-48,1.88-71.64-3-24.7-4.88-49.9-5.76-75-4.6-58.55,3-117.61,6.31-176-1.06C84.83,51.93,63,58.61,49.45,73.35Z"/><path d="M207.29,83.86c28.51-7.42,59.7-11.38,88.08-1.11,35.85,12.3,68.14,37.13,85.37,71.35C399.81,188,400.37,228.87,393,266.18c-4.15,18.19-15.85,33.49-20.69,51.45,10.46,11.33,25.75,20,29.07,36.3,3.46,15.2,4.52,34-7.19,46.11-9.76,11.15-26,10.27-39.52,9.63-14.29-.79-24.88-11.66-37.6-16.86-19.85,5-38.05,15.61-58.51,18.56-36.9,6.63-79.7-.6-105.64-29.62-17.27-18.93-33.08-40.3-40.45-65.22-15.25-52.29-21.33-111.3,4.47-161.41,14.79-38,52.75-60.67,90.35-71.26m-60.86,54.49C126,166.26,114.32,201,116,235.82c1.2,48.05,13.18,99.36,48.93,133.86,21.19,25.15,56.94,29.16,87.67,25.43,21.88-2,41-13.82,61.78-19.76,11.84-3,20.36,7.92,29.85,12.9,11.34,8.47,26.82,6.22,38.93.73,3.6-12.34,4.52-26.48-1.15-38.32-7.6-9.58-18.66-15.43-26.77-24.46-2.81-22.11,14.1-39.48,20.09-59.52,10.5-42.47,5.58-91.16-23-125.84-23.45-27.23-57.91-47.49-94.67-47.08C216.87,93.16,174.76,108.45,146.43,138.35Z"/><path d="M245.75,151c15-2.21,32.67-5.25,45.61,4.88,16.87,12.76,33.22,30.13,34.37,52.42,1.8,20.32,1.38,48.41-21.74,56.52-8.53-5.85-15.3-14-24.51-18.79-13.13-3.32-23.68,9.62-23.59,21.83-2.81,19.49,11.56,35.19,14.24,53.57-12.58,17.09-38.1,24.6-56.9,13.59-16.36-10.22-24.74-28.79-31.24-46.2-12.25-35.33-13.08-78.12,10.55-109C204.24,162,226,155.39,245.75,151M211,184.46c-31.24,34.27-22.9,88.49.14,125,7,13.73,25.15,16.86,37.73,8.89-6.54-26.9-20.32-64.4,7.78-83.79,16.27-13.59,35,.09,51.51,5,7.51-27-3.59-58.78-30.41-70.11C255.29,161.84,228.89,169.77,211,184.46Z"/><path class="cls-2" d="M49.45,73.35C63,58.61,84.83,51.93,104.59,53.78c58.38,7.37,117.44,4,176,1.06,25.11-1.16,50.31-.28,75,4.6,23.63,4.88,47.86-.32,71.64,3,7.83.64,15.57,5.52,16.86,13.77,7.37,29.53,4.1,60.25,6.49,90.28,5.16,61.36.93,123,.79,184.35-.1,25.71,5.66,53.53-6.5,77.39-25.2,5.34-51.28-1-76.8.51-29,.23-58.14-5.71-86.89.78-40,8-81.63,1.11-121,12.53-25.57,8.11-51.88-2.07-77.86,1.38-8.94.23-21.47,3.73-25.71-7.09-8.06-19.67-7.19-41.55-7.37-62.42C50.83,321.64,43,269.59,44.66,217.3c-.23-27.73-1.34-55.46,1.42-83.1,2.31-20.22-1.29-41,3.37-60.85M207.29,83.86c-37.6,10.59-75.56,33.3-90.35,71.26-25.8,50.11-19.72,109.12-4.47,161.41,7.37,24.92,23.18,46.29,40.45,65.22,25.94,29,68.74,36.25,105.64,29.62,20.46-2.95,38.66-13.59,58.51-18.56,12.72,5.2,23.31,16.07,37.6,16.86,13.49.64,29.76,1.52,39.52-9.63,11.71-12.12,10.65-30.91,7.19-46.11-3.32-16.26-18.61-25-29.07-36.3,4.84-18,16.54-33.26,20.69-51.45,7.37-37.31,6.81-78.17-12.26-112.08-17.23-34.22-49.52-59-85.37-71.35C267,72.48,235.8,76.44,207.29,83.86Z"/><path class="cls-2" d="M211,184.46c17.87-14.69,44.27-22.62,66.75-15.06,26.82,11.33,37.92,43.07,30.41,70.11-16.54-4.89-35.24-18.57-51.51-5-28.1,19.39-14.32,56.89-7.78,83.79-12.58,8-30.69,4.84-37.73-8.89C188.12,273,179.78,218.73,211,184.46Z"/></g></svg>